HIERARCHY
ROOT Hips
{
	OFFSET 0.00000 0.00000 0.00000
	CHANNELS 6 Xposition Yposition Zposition Zrotation Yrotation Xrotation 
	JOINT LHipJoint
	{
		OFFSET 0 0 0
		CHANNELS 3 Zrotation Yrotation Xrotation
		JOINT LeftUpLeg
		{
			OFFSET 1.75344 -1.53157 0.77399
			CHANNELS 3 Zrotation Yrotation Xrotation
			JOINT LeftLeg
			{
				OFFSET 2.25415 -6.19323 0.00000
				CHANNELS 3 Zrotation Yrotation Xrotation
				JOINT LeftFoot
				{
					OFFSET 2.30342 -6.32861 0.00000
					CHANNELS 3 Zrotation Yrotation Xrotation
					JOINT LeftToeBase
					{
						OFFSET 0.10958 -0.30108 1.49206
						CHANNELS 3 Zrotation Yrotation Xrotation
						End Site
						{
							OFFSET 0.00000 -0.00000 0.77783
						}
					}
				}
			}
		}
	}
	JOINT RHipJoint
	{
		OFFSET 0 0 0
		CHANNELS 3 Zrotation Yrotation Xrotation
		JOINT RightUpLeg
		{
			OFFSET -1.81912 -1.53156 0.77399
			CHANNELS 3 Zrotation Yrotation Xrotation
			JOINT RightLeg
			{
				OFFSET -2.22882 -6.12365 0.00000
				CHANNELS 3 Zrotation Yrotation Xrotation
				JOINT RightFoot
				{
					OFFSET -2.21943 -6.09785 0.00000
					CHANNELS 3 Zrotation Yrotation Xrotation
					JOINT RightToeBase
					{
						OFFSET -0.18931 -0.52012 1.59379
						CHANNELS 3 Zrotation Yrotation Xrotation
						End Site
						{
							OFFSET -0.00000 -0.00000 0.84686
						}
					}
				}
			}
		}
	}
	JOINT LowerBack
	{
		OFFSET 0 0 0
		CHANNELS 3 Zrotation Yrotation Xrotation
		JOINT Spine
		{
			OFFSET -0.00200 1.66634 -0.14248
			CHANNELS 3 Zrotation Yrotation Xrotation
			JOINT Spine1
			{
				OFFSET -0.00875 1.64542 0.09514
				CHANNELS 3 Zrotation Yrotation Xrotation
				JOINT Neck
				{
					OFFSET 0 0 0
					CHANNELS 3 Zrotation Yrotation Xrotation
					JOINT Neck1
					{
						OFFSET 0.02257 1.59605 0.00839
						CHANNELS 3 Zrotation Yrotation Xrotation
						JOINT Head
						{
							OFFSET -0.10214 1.57530 -0.23335
							CHANNELS 3 Zrotation Yrotation Xrotation
							End Site
							{
								OFFSET -0.03588 1.60717 -0.08062
							}
						}
					}
				}
				JOINT LeftShoulder
				{
					OFFSET 0 0 0
					CHANNELS 3 Zrotation Yrotation Xrotation
					JOINT LeftArm
					{
						OFFSET 2.54983 1.10186 0.40078
						CHANNELS 3 Zrotation Yrotation Xrotation
						JOINT LeftForeArm
						{
							OFFSET 4.28840 -0.00000 0.00000
							CHANNELS 3 Zrotation Yrotation Xrotation
							JOINT LeftHand
							{
								OFFSET 3.06552 -0.00000 -0.00000
								CHANNELS 3 Zrotation Yrotation Xrotation
								JOINT LeftFingerBase
								{
									OFFSET 0 0 0
									CHANNELS 3 Zrotation Yrotation Xrotation
									JOINT LeftHandIndex1
									{
										OFFSET 0.75304 -0.00000 0.00000
										CHANNELS 3 Zrotation Yrotation Xrotation
										End Site
										{
											OFFSET 0.60712 -0.00000 0.00000
										}
									}
								}
								JOINT LThumb
								{
									OFFSET 0 0 0
									CHANNELS 3 Zrotation Yrotation Xrotation
									End Site
									{
										OFFSET 0.61639 -0.00000 0.61639
									}
								}
							}
						}
					}
				}
				JOINT RightShoulder
				{
					OFFSET 0 0 0
					CHANNELS 3 Zrotation Yrotation Xrotation
					JOINT RightArm
					{
						OFFSET -2.60909 1.35448 0.21802
						CHANNELS 3 Zrotation Yrotation Xrotation
						JOINT RightForeArm
						{
							OFFSET -4.52172 -0.00000 -0.00000
							CHANNELS 3 Zrotation Yrotation Xrotation
							JOINT RightHand
							{
								OFFSET -2.89140 -0.00000 0.00000
								CHANNELS 3 Zrotation Yrotation Xrotation
								JOINT RightFingerBase
								{
									OFFSET 0 0 0
									CHANNELS 3 Zrotation Yrotation Xrotation
									JOINT RightHandIndex1
									{
										OFFSET -0.68054 -0.00000 0.00000
										CHANNELS 3 Zrotation Yrotation Xrotation
										End Site
										{
											OFFSET -0.54867 -0.00000 0.00000
										}
									}
								}
								JOINT RThumb
								{
									OFFSET 0 0 0
									CHANNELS 3 Zrotation Yrotation Xrotation
									End Site
									{
										OFFSET -0.55705 -0.00000 0.55705
									}
								}
							}
						}
					}
				}
			}
		}
	}
}
MOTION
Frames: 15
Frame Time: .0083333
8.3611 15.2169 42.0008 0 0 0 0 0 0 -21 0 0 0 0 0 0 0 0 0 0 0 0 0 0 21 0 0 0 0 0 0 0 0 0 0 0 0 0 0 0 0 0 0 0 0 0 0 -16 0 0 21 0 0 11 0 0 0 -8 0 0 0 0 0 0 0 0 0 0 0 0 0 0 0 0 0 0 0 0 8 0 0 0 0 0 0 0 0 0 0 0 0 0 0 0 0 0
8.3611 15.2169 42.0008 -178.7130 -3.4334 -178.8750 0.0000 0.0000 0.0000 -20.1832 -15.4844 -5.6958 2.3485 9.5570 27.5537 1.8757 1.3315 -26.4040 4.9243 -13.2980 -40.4944 0.0000 0.0000 0.0000 27.3957 9.0581 -2.4296 -1.4698 -7.6612 21.6898 -0.3815 -18.4045 -28.9908 -0.0254 -1.0291 2.8288 1.8084 1.8634 7.1303 0.4936 2.6724 -3.6882 -0.8591 1.2052 -7.8246 -6.9929 -1.5498 -5.4096 5.9369 -2.2555 10.3829 2.8437 -1.1548 4.1256 0.0000 0.0000 0.0000 -86.2373 12.9889 26.2819 23.7405 -34.8887 -7.5576 -0.0000 -0.0000 11.3103 11.1142 -33.8573 -6.2460 -7.1250 0.0000 -0.0000 -11.7790 -3.7421 12.7887 0.0000 0.0000 0.0000 83.0840 -11.8947 33.4723 -21.3723 32.2603 -6.2475 0.0000 0.0000 14.7135 -8.4327 -54.4233 6.8754 7.1250 -0.0000 -0.0000 73.4544 -74.7467 -57.7783
8.3583 15.2086 41.9973 -178.7150 -3.3397 -178.9490 0.0000 0.0000 0.0000 -20.2071 -15.3789 -5.7385 2.3868 9.6290 27.7836 1.9043 1.2222 -26.5600 4.9316 -13.3063 -40.5262 0.0000 0.0000 0.0000 27.3369 8.8204 -2.6573 -1.5251 -7.7975 22.1007 -0.4581 -18.0968 -29.1644 -0.0137 -0.7548 2.0744 1.8075 1.8129 7.3314 0.5312 2.6147 -3.6131 -0.8174 1.1793 -7.8642 -7.0546 -1.7870 -5.3186 5.8095 -2.5396 10.0851 2.7988 -1.2985 4.0390 -0.0000 -0.0000 0.0000 -86.1269 12.9594 26.2632 23.8851 -35.0425 -7.6405 -0.0000 -0.0000 10.5797 8.8853 -33.1443 -4.8855 -7.1250 0.0000 -0.0000 -12.9509 -2.7339 13.9072 -0.0000 -0.0000 0.0000 82.8853 -11.7597 33.5169 -21.4364 32.3342 -6.2817 0.0000 0.0000 14.5443 -8.1293 -54.5778 6.6395 7.1250 -0.0000 -0.0000 74.1128 -74.6668 -58.3107
8.3552 15.2003 41.9911 -178.7140 -3.2495 -178.8980 0.0000 0.0000 0.0000 -20.1980 -15.2979 -5.8818 2.4137 9.6792 27.9441 1.9118 1.3414 -26.6563 5.0147 -13.4004 -40.8863 0.0000 0.0000 0.0000 27.2594 8.6104 -3.0082 -1.5774 -7.9241 22.4837 -0.5469 -17.5809 -29.1840 -0.0168 -0.8361 2.2981 1.9097 1.8065 7.3832 0.4706 2.6152 -3.5968 -0.9401 1.1731 -7.8695 -7.0996 -1.9720 -5.1476 5.8142 -2.7797 9.8033 2.7955 -1.4165 3.9419 -0.0000 -0.0000 0.0000 -85.9287 13.0849 26.3569 24.2887 -35.4680 -7.8734 -0.0000 -0.0000 9.6022 6.4775 -32.0771 -3.4505 -7.1250 0.0000 -0.0000 -14.2236 -1.4011 15.0337 -0.0000 -0.0000 0.0000 82.8378 -11.7791 33.5833 -21.5388 32.4518 -6.3366 0.0000 0.0000 14.0847 -7.3725 -54.8285 6.0376 7.1250 -0.0000 -0.0000 75.2532 -74.4384 -59.1348
8.3539 15.1987 41.9812 -178.7940 -3.2534 -178.6140 0.0000 0.0000 0.0000 -20.2082 -15.4064 -6.2405 2.4439 9.7352 28.1234 1.9327 1.3945 -26.8195 4.9711 -13.3511 -40.6976 0.0000 0.0000 0.0000 27.1287 8.7059 -3.4635 -1.6284 -8.0450 22.8509 -0.5941 -17.3913 -29.2975 -0.0229 -0.9761 2.6830 1.9295 1.7992 7.1967 0.3489 2.5936 -3.6349 -1.0698 1.1586 -7.7958 -7.2308 -2.1102 -5.0294 6.0976 -2.9703 9.4672 2.8952 -1.4986 3.8388 0.0000 -0.0000 0.0000 -85.6533 13.3032 26.3012 24.0145 -35.1796 -7.7149 -0.0000 -0.0000 10.4735 8.1844 -33.4093 -4.5279 -7.1250 0.0000 -0.0000 -13.3539 -2.9000 14.4013 0.0000 -0.0000 0.0000 82.8716 -11.8516 33.6014 -21.7252 32.6651 -6.4369 0.0000 0.0000 13.9759 -7.4608 -54.5032 6.0858 7.1250 -0.0000 -0.0000 74.0700 -74.4058 -57.9727
8.3537 15.1981 41.9790 -178.8430 -2.4870 -178.2750 0.0000 0.0000 0.0000 -20.1658 -15.0036 -6.7956 2.4789 9.7993 28.3294 1.9654 1.5230 -27.0904 4.8767 -13.2435 -40.2871 0.0000 0.0000 0.0000 26.9730 9.2507 -3.9290 -1.6784 -8.1614 23.2055 -0.6157 -17.1409 -29.1647 -0.0118 -0.7004 1.9248 1.7723 2.0216 7.1301 0.3453 2.8719 -3.6867 -1.0217 1.3014 -7.8118 -7.4715 -2.2426 -5.0138 6.4203 -3.1343 9.1031 3.0256 -1.5668 3.7459 0.0000 0.0000 0.0000 -85.5836 13.3705 26.6997 24.7958 -35.9945 -8.1696 -0.0000 -0.0000 8.6898 5.5484 -30.4816 -2.8211 -7.1250 0.0000 -0.0000 -14.6827 0.2433 15.1262 0.0000 0.0000 0.0000 82.7211 -11.8000 33.7207 -21.9172 32.8833 -6.5408 0.0000 0.0000 14.0064 -8.4297 -53.8397 6.8230 7.1250 -0.0000 -0.0000 71.3593 -74.6116 -55.6590
8.3524 15.1890 41.9711 -178.8480 -2.6503 -178.2870 0.0000 0.0000 0.0000 -20.1589 -15.0279 -6.8946 2.5182 9.8709 28.5596 1.9892 1.3911 -27.2008 4.8651 -13.2303 -40.2366 0.0000 0.0000 0.0000 26.9540 9.0258 -4.1257 -1.7209 -8.2587 23.5026 -0.6932 -16.9696 -29.5137 -0.0093 -0.6242 1.7154 1.7395 1.8745 7.3037 0.4016 2.6813 -3.6252 -0.9241 1.2123 -7.8560 -7.5033 -2.3543 -5.1153 6.3636 -3.2423 8.8078 3.0067 -1.6147 3.6816 -0.0000 -0.0000 0.0000 -85.6192 13.4104 26.1176 24.0211 -35.1866 -7.7187 -0.0000 -0.0000 10.4731 11.0792 -33.5318 -6.1736 -7.1250 0.0000 -0.0000 -11.7706 -3.4186 12.7164 -0.0000 -0.0000 0.0000 82.4831 -11.6047 33.8352 -21.9240 32.8910 -6.5445 0.0000 0.0000 14.0954 -8.8488 -53.5391 7.1368 7.1250 -0.0000 -0.0000 70.1197 -74.6902 -54.5960
8.3516 15.1813 41.9642 -178.7860 -2.4841 -178.1650 0.0000 0.0000 0.0000 -20.0377 -14.8729 -7.1928 2.5635 9.9524 28.8227 2.0225 1.2417 -27.3676 4.8778 -13.2449 -40.2922 0.0000 0.0000 0.0000 26.9687 8.9936 -4.4521 -1.7659 -8.3604 23.8141 -0.7493 -16.6843 -29.5881 -0.0091 -0.6152 1.6904 1.7477 1.8464 7.3568 0.4478 2.6491 -3.6056 -0.8773 1.1974 -7.8686 -7.4597 -2.4201 -5.2522 6.2421 -3.2957 8.6374 2.9581 -1.6376 3.6546 0.0000 0.0000 0.0000 -85.5280 13.5485 26.0094 24.1561 -35.3289 -7.7966 -0.0000 -0.0000 10.0937 1.0913 -34.2084 -0.6136 -7.1250 0.0000 -0.0000 -17.2262 -2.9045 18.9362 0.0000 0.0000 0.0000 82.3478 -11.3863 33.7369 -21.7986 32.7487 -6.4766 0.0000 0.0000 14.2803 -8.5330 -53.8906 6.9115 7.1250 -0.0000 -0.0000 71.5003 -74.6623 -55.8479
8.3481 15.1761 41.9593 -178.6640 -2.1648 -178.0120 0.0000 0.0000 0.0000 -19.8567 -14.6707 -7.5622 2.6149 10.0439 29.1191 2.0506 1.1818 -27.5326 4.8988 -13.2689 -40.3835 0.0000 0.0000 0.0000 27.0003 8.9790 -4.8837 -1.8230 -8.4872 24.2041 -0.7931 -16.2853 -29.4605 -0.0062 -0.5083 1.3968 1.8674 1.9101 7.3661 0.4779 2.7487 -3.6067 -0.9266 1.2402 -7.8689 -7.6948 -2.5173 -5.2632 6.5318 -3.4266 8.5298 3.0788 -1.6955 3.6417 -0.0000 -0.0000 0.0000 -85.3371 13.6989 25.9552 23.7843 -34.9353 -7.5827 -0.0000 -0.0000 10.9527 11.4900 -34.6615 -6.5944 -7.1250 0.0000 -0.0000 -11.6457 -4.5852 12.7976 -0.0000 -0.0000 0.0000 82.3170 -11.2345 33.6023 -21.6539 32.5836 -6.3984 0.0000 0.0000 14.1211 -8.0498 -54.7866 6.5911 7.1250 -0.0000 -0.0000 74.8928 -74.6786 -59.0654
8.3464 15.1667 41.9511 -178.7210 -2.4240 -178.0350 0.0000 0.0000 0.0000 -19.9027 -14.7742 -7.6688 2.6667 10.1349 29.4146 2.0755 0.9980 -27.6300 4.8520 -13.2151 -40.1792 0.0000 0.0000 0.0000 26.9147 8.6157 -5.1867 -1.8885 -8.6298 24.6441 -0.8167 -16.3029 -29.6415 -0.0019 -0.2805 0.7706 1.8207 1.7593 7.4890 0.5064 2.5486 -3.5426 -0.8463 1.1470 -7.8799 -7.8427 -2.5457 -5.1507 6.6500 -3.4413 8.1097 3.1401 -1.6979 3.5023 -0.0000 0.0000 0.0000 -85.2225 13.9109 26.5022 24.5511 -35.7416 -8.0262 -0.0000 -0.0000 9.2000 7.8860 -32.0633 -4.2054 -7.1250 0.0000 -0.0000 -13.4391 -1.5555 14.1910 -0.0000 0.0000 0.0000 82.1790 -11.1298 33.7486 -21.6193 32.5441 -6.3798 0.0000 0.0000 13.8205 -8.1236 -55.3869 6.7002 7.1250 -0.0000 -0.0000 77.0630 -74.8077 -61.2935
8.3452 15.1572 41.9501 -178.8680 -2.1121 -177.7340 0.0000 0.0000 0.0000 -19.9753 -14.6493 -8.2060 2.7226 10.2318 29.7306 2.1007 0.9251 -27.7693 4.7651 -13.1143 -39.7979 0.0000 0.0000 0.0000 26.6592 8.8172 -5.7606 -1.9564 -8.7747 25.0931 -0.8172 -16.2547 -29.5938 -0.0002 -0.1002 0.2753 1.5828 1.7898 7.6170 0.5320 2.5681 -3.6377 -0.6954 1.1657 -8.0677 -7.9155 -2.5752 -5.1649 6.6125 -3.4415 7.7432 3.1405 -1.6946 3.3954 0.0000 -0.0000 0.0000 -85.2381 14.1942 26.4006 24.2516 -35.4292 -7.8519 -0.0000 -0.0000 10.1421 9.3193 -32.8847 -5.0916 -7.1250 0.0000 -0.0000 -12.6934 -2.5391 13.5750 0.0000 -0.0000 0.0000 81.9191 -11.1943 33.9921 -21.7484 32.6915 -6.4494 0.0000 0.0000 13.7472 -8.5893 -55.3357 7.0818 7.1250 -0.0000 -0.0000 76.7604 -74.9701 -61.1865
8.3448 15.1502 41.9448 -178.9060 -1.8212 -177.4120 0.0000 0.0000 0.0000 -19.9184 -14.5182 -8.7615 2.7806 10.3311 30.0557 2.1203 0.9878 -27.9200 4.8125 -13.1695 -40.0063 0.0000 0.0000 0.0000 26.5407 9.1154 -6.2929 -2.0246 -8.9170 25.5362 -0.8558 -16.0332 -29.6249 -0.0006 -0.1570 0.4314 1.5370 1.8453 7.5801 0.5265 2.6347 -3.6981 -0.6847 1.1987 -8.1118 -8.0726 -2.6313 -5.1985 6.8234 -3.4960 7.4059 3.2283 -1.7119 3.3101 0.0000 0.0000 0.0000 -85.1115 14.3919 26.7914 24.6833 -35.8786 -8.1036 -0.0000 -0.0000 8.9566 7.5143 -31.6115 -3.9551 -7.1250 0.0000 -0.0000 -13.6232 -1.0716 14.2825 0.0000 0.0000 0.0000 81.8129 -11.2270 33.8344 -21.7885 32.7372 -6.4711 0.0000 0.0000 13.8606 -9.0156 -54.8388 7.3908 7.1250 -0.0000 -0.0000 74.8005 -75.0438 -59.3920
8.3421 15.1429 41.9351 -178.7960 -1.5980 -177.1320 0.0000 0.0000 0.0000 -19.7228 -14.4636 -9.2544 2.8456 10.4408 30.4163 2.1550 1.1614 -28.2085 4.9576 -13.3359 -40.6393 0.0000 0.0000 0.0000 26.5756 9.3152 -6.7993 -2.0903 -9.0517 25.9571 -0.8827 -15.8905 -29.6608 -0.0000 0.0418 -0.1149 1.7571 1.8815 7.5386 0.4947 2.7017 -3.7769 -0.8507 1.2160 -8.1597 -8.0987 -2.7090 -5.0714 6.9168 -3.5899 6.9888 3.2584 -1.7530 3.1733 -0.0000 -0.0000 0.0000 -84.7805 14.6603 27.2454 24.7544 -35.9519 -8.1453 -0.0000 -0.0000 8.6562 8.2952 -32.2935 -4.4540 -7.1250 0.0000 -0.0000 -13.2242 -1.8302 14.0138 -0.0000 -0.0000 0.0000 81.8672 -11.2135 33.4116 -21.6709 32.6031 -6.4076 0.0000 0.0000 13.9439 -8.9910 -54.1808 7.3110 7.1250 -0.0000 -0.0000 72.3815 -74.9005 -56.9416
8.3440 15.1335 41.9193 -178.6950 -1.4890 -176.9700 0.0000 0.0000 0.0000 -19.5793 -14.6416 -9.4874 2.9181 10.5612 30.8140 2.2266 1.1997 -28.6822 4.9158 -13.2884 -40.4578 0.0000 0.0000 0.0000 26.6663 9.3966 -7.1055 -2.1448 -9.1615 26.3017 -0.9072 -15.8347 -29.7698 -0.0004 0.1228 -0.3374 1.8543 1.8462 7.4523 0.4894 2.6626 -3.7181 -0.9007 1.1941 -8.0424 -7.8289 -2.7648 -5.0936 6.6675 -3.6310 6.5037 3.1365 -1.7686 3.0259 0.0000 0.0000 0.0000 -84.5420 14.7498 26.4314 23.4119 -34.5362 -7.3705 -0.0000 -0.0000 11.5039 11.4722 -38.0384 -7.1280 -7.1250 0.0000 -0.0000 -12.0009 -7.8759 13.8189 0.0000 0.0000 0.0000 81.9043 -11.0450 33.3428 -21.6463 32.5749 -6.3943 0.0000 0.0000 13.6536 -9.6755 -53.2080 7.7747 7.1250 -0.0000 -0.0000 68.5822 -74.9082 -53.4219
8.3347 15.1200 41.9055 -178.6820 -2.1325 -177.0780 0.0000 0.0000 0.0000 -19.6233 -15.2483 -9.3932 2.9946 10.6862 31.2289 2.2674 1.0687 -28.8935 4.7437 -13.0892 -39.7034 0.0000 0.0000 0.0000 26.6785 8.7982 -7.3110 -2.2039 -9.2784 26.6701 -0.9887 -15.6799 -30.1597 -0.0009 -0.1886 0.5182 2.0896 1.5342 7.6496 0.4882 2.2784 -3.5988 -0.9843 0.9968 -8.0299 -7.7280 -2.7677 -5.2538 6.2448 -3.5717 6.0176 3.3264 -1.7622 3.2160 0.0000 0.0000 0.0000 -84.4749 15.0993 27.0022 24.1740 -35.3478 -7.8070 -0.0000 -0.0000 10.1483 10.9857 -35.7682 -6.4734 -7.1250 0.0000 -0.0000 -12.0222 -5.5889 13.4220 0.0000 0.0000 0.0000 81.7980 -10.9891 33.5124 -21.7371 32.6786 -6.4433 0.0000 0.0000 13.3136 -10.6909 -52.5889 8.5282 7.1250 -0.0000 -0.0000 65.8812 -75.1034 -51.1749
